<svg xmlns="http://www.w3.org/2000/svg" width="1440" height="1230" viewBox="0 0 1440 1230" role="img" aria-labelledby="title desc">
<title id="title">Mobility Decision Copilot — implemented architecture, 2026-09-05</title>
<desc id="desc">React uses the Spring API and bounded async brief jobs. The Java workflow uses process-local DuckDB and bounded optional Sarvam assistance. PostgreSQL shares mutable control state. Human approval and revalidation precede mock action execution. Proposed publication and incident features are shown separately.</desc>
<defs><marker id="arrow" markerWidth="8" markerHeight="8" refX="7" refY="4" orient="auto"><path d="M0 0 L8 4 L0 8 Z" fill="#64748b"/></marker></defs>
<style>.heading{font:600 23px system-ui,sans-serif}.body{font:18px system-ui,sans-serif;fill:#334155}.small{font:16px system-ui,sans-serif;fill:#475569}.edge{fill:none;stroke:#64748b;stroke-width:2;marker-end:url(#arrow)}</style>
<rect width="1440" height="1230" fill="#f1f5f9"/>
<text x="40" y="54" style="font:700 32px system-ui,sans-serif;fill:#0f172a">Mobility Decision Copilot</text>
<text x="40" y="87" class="body">Implemented runtime · Java 21 / Spring Boot + React / TypeScript · D-048 · 2026-09-05</text>
<g><rect x="40" y="120" width="1360" height="120" rx="16" fill="white" stroke="#cbd5e1"/><rect x="40" y="120" width="7" height="120" rx="3" fill="#0f766e"/><text x="65" y="154" class="heading" fill="#0f766e">01  EXPERIENCE</text><text x="65" y="184" class="body">Morning brief • governed comparison charts • Investigation • Ask + evidence drawers • Approval • Audit • Trust</text><text x="65" y="211" class="body">Async polling and cancellation • keyboard focus / reduced motion • leadership clipboard and text export</text></g>
<path class="edge" d="M440 240 V275"/>
<g><rect x="40" y="280" width="1360" height="125" rx="16" fill="white" stroke="#cbd5e1"/><rect x="40" y="280" width="7" height="125" rx="3" fill="#0f766e"/><text x="65" y="314" class="heading" fill="#0f766e">02  API + ASYNC BRIEF ADMISSION</text><text x="65" y="344" class="body">Registry identity / tenant and role checks → POST /api/v1/brief-jobs → identity-scoped reuse or 202 queued</text><text x="65" y="371" class="body">BriefJobStore: in-memory OR PostgreSQL • bounded admission • default 2 brief workers • sync routes retained</text></g>
<path class="edge" d="M440 405 V445"/>
<g><rect x="40" y="450" width="800" height="165" rx="16" fill="white" stroke="#cbd5e1"/><rect x="40" y="450" width="7" height="165" rx="3" fill="#0f766e"/><text x="65" y="484" class="heading" fill="#0f766e">03  CONTROLLED JAVA WORKFLOW</text><text x="65" y="514" class="body">18 nodes • Supervisor → Investigator → Critic → Briefing</text><text x="65" y="541" class="body">7 registered workers • shared bounded investigation executor</text><text x="65" y="568" class="body">Governed evidence → verify → render verified claims → policy</text></g>
<g><rect x="880" y="450" width="520" height="165" rx="16" fill="white" stroke="#cbd5e1"/><rect x="880" y="450" width="7" height="165" rx="3" fill="#4338ca"/><text x="905" y="484" class="heading" fill="#4338ca">OPTIONAL SARVAM ASSISTANCE</text><text x="905" y="514" class="body">LanguageModelPort • sarvam-105b</text><text x="905" y="541" class="body">Server-side key • JSON / timeout / concurrency</text><text x="905" y="568" class="body">Deterministic fallback • tokens / estimated cost</text></g>
<path class="edge" d="M840 520 H875"/>
<path class="edge" d="M880 566 H845"/>
<path class="edge" d="M350 615 V655"/>
<path class="edge" d="M680 615 V640 H1060 V655"/>
<g><rect x="40" y="660" width="640" height="195" rx="16" fill="white" stroke="#cbd5e1"/><rect x="40" y="660" width="7" height="195" rx="3" fill="#0f766e"/><text x="65" y="694" class="heading" fill="#0f766e">04  PROCESS-LOCAL ANALYTICS</text><text x="65" y="724" class="body">Immutable official CSVs → normalization → DuckDB</text><text x="65" y="751" class="body">M01–M18 / prior four complete weeks / G1–G3</text><text x="65" y="778" class="body">Metric cache: 2,048 entries • capability cache: 128</text><text x="65" y="805" class="body">Ten-minute TTL • tenant / window / version scope</text></g>
<g><rect x="720" y="660" width="680" height="195" rx="16" fill="white" stroke="#cbd5e1"/><rect x="720" y="660" width="7" height="195" rx="3" fill="#0f766e"/><text x="745" y="694" class="heading" fill="#0f766e">05  HUMAN CONTROL + RECOVERY</text><text x="745" y="724" class="body">Human decision → fresh revalidation → idempotent mock effect</text><text x="745" y="751" class="body">PostgreSQL: jobs, checkpoints, rich snapshots, approvals, audit</text><text x="745" y="778" class="body">Local alternative: in-memory control repositories</text><text x="745" y="805" class="body">Completed / paused run recovery • no blind crash replay</text></g>
<path class="edge" d="M350 855 V887 H720 V915"/>
<path class="edge" d="M1060 855 V887 H720"/>
<g><rect x="40" y="920" width="1360" height="115" rx="16" fill="white" stroke="#cbd5e1"/><rect x="40" y="920" width="7" height="115" rx="3" fill="#334155"/><text x="65" y="954" class="heading" fill="#334155">06  TRUST + VERIFICATION</text><text x="65" y="984" class="body">Redacted node/tool traces • optional Langfuse • provider attempts / fallback / token accounting</text><text x="65" y="1011" class="body">Official checksum + metric gates • tenant isolation • approval / duplicate-effect tests • restart and UI checks</text></g>
<g><rect x="40" y="1070" width="1360" height="110" rx="16" fill="white" stroke="#cbd5e1"/><rect x="40" y="1070" width="7" height="110" rx="3" fill="#a16207"/><text x="65" y="1104" class="heading" fill="#a16207">PROPOSED EXTENSIONS — NOT IMPLEMENTED</text><text x="65" y="1134" class="body">Versioned dataset publication + last-good rollback • persistent DQ provenance • incident follow-up</text><text x="65" y="1161" class="body">Keep PostgreSQL for shared mutable state • an executed mock action does not mean an incident is resolved</text></g>
<text x="40" y="1210" class="small">Always join / aggregate by (business_unit, trip_id) · No live Sarvam benchmark claimed · No external vendor communication</text>
</svg>
